<svg width="409" height="409" viewBox="0 0 409 409" fill="none" xmlns="http://www.w3.org/2000/svg">
<path d="M353.065 344.392C349.281 348.544 343.913 353.834 339.607 357.426C332.637 363.238 323.234 370.961 315.511 375.731C307.479 380.674 296.473 386.795 287.901 390.753C280.621 394.113 270.601 397.936 262.877 400.04C256.12 401.875 247.084 404.385 240.152 405.408C235.788 406.065 229.977 407.05 225.575 407.436C219.647 407.976 211.711 408.498 205.745 408.498C190.685 408.536 180.375 407.069 174.833 406.296C170.856 405.737 165.585 404.752 161.665 403.902C157.321 402.956 151.529 401.624 147.3 400.253C143.709 399.094 138.882 397.627 135.31 396.352C131.68 395.039 126.853 393.224 123.339 391.622C120.192 390.174 115.925 388.378 112.874 386.737C109.901 385.153 105.904 383.087 102.969 381.407C100.092 379.766 96.3272 377.488 93.5662 375.673C88.0828 372.081 79.568 366.347 68.7555 356.731C64.1795 352.657 58.4837 346.825 54.2359 342.423C52.0735 340.183 49.4283 336.958 47.4009 334.583C45.2964 332.131 42.6898 328.714 40.759 326.145C38.8475 323.577 36.4533 320.025 34.5998 317.399C32.7269 314.734 30.5258 310.949 28.8074 308.188C26.8766 305.06 24.579 300.735 22.8992 297.472C21.2966 294.363 19.2886 290.154 17.8791 286.968C16.18 283.067 14.0175 277.796 12.5887 273.78C10.9476 269.146 8.97814 262.87 7.64589 258.14C5.42548 250.223 3.59123 239.372 2.22036 231.262C-1.04268 206.701 8.26375 180.248 31.6457 155.455C90.2839 93.2229 215.496 64.5879 310.78 91.6395C215.515 64.6072 90.2839 93.2229 31.6457 155.455C8.34098 180.267 -0.984754 206.72 2.2976 231.262C0.424726 216.568 0.482649 208.419 0.540573 199.788C0.598497 192.123 1.50597 181.889 2.68375 174.301C4.09323 165.226 6.75773 153.215 9.44153 144.43C12.0095 135.992 16.1028 124.87 20.0995 117.011C24.3473 108.651 30.352 97.6253 35.6617 89.8631C41.1452 81.8307 49.2738 71.6549 55.9543 64.6072C67.2688 52.655 76.0732 45.8776 81.8849 41.3786C89.0095 35.8949 99.2427 29.5809 107.082 25.1592C114.148 21.1816 124.034 16.6826 131.641 13.8442C140.195 10.6582 151.857 7.10542 160.777 5.13592C167.496 3.64914 176.571 2.02719 183.425 1.50586C187.77 1.1776 193.562 0.617648 197.906 0.540413C203.718 0.42456 211.499 0.328016 217.291 0.868663C221.423 1.23553 226.965 1.66033 231.077 2.22028C235.982 2.89609 242.469 4.03531 247.315 5.03937C257.722 7.20196 269.809 11.083 273.671 12.5891C277.262 13.9794 282.128 15.6979 285.642 17.3198C291.839 20.1775 300.045 24.1744 306.011 27.5149C308.888 29.1368 312.692 31.3959 315.414 33.2496C318.04 35.0453 321.574 37.3817 324.161 39.2353C326.69 41.0697 329.992 43.5991 332.405 45.5493C360.556 68.2372 377.123 93.8987 386.062 111.45C387.896 115.061 390.213 119.966 391.835 123.692C393.303 127.091 395.04 131.705 396.373 135.162C398.149 139.757 400.041 146.052 401.315 150.802C403.439 158.757 405.447 169.551 406.741 177.68C407.533 182.681 407.938 189.42 408.286 194.478C408.942 203.94 408.479 221.221 406.355 234.641C403.401 253.313 400.234 263.643 395.137 277.468C393.515 281.89 391.14 287.74 388.939 291.93C384.595 300.252 378.378 311.123 373.377 319.078C368.202 327.304 359.63 337.152 353.084 344.334L353.065 344.392Z" stroke="black" stroke-width="0.5" stroke-miterlimit="10"/>
<path d="M310.838 91.6393C215.573 64.607 90.3418 93.2227 31.7036 155.455C43.6745 245.357 130.734 340.183 226.173 367.273C284.811 305.041 322.79 181.387 310.838 91.6393V91.6393Z" stroke="black" stroke-width="0.5" stroke-miterlimit="10"/>
<path d="M209.163 82.3325C215.206 127.67 259.112 175.498 307.228 189.149" stroke="black" stroke-width="0.5" stroke-miterlimit="10"/>
<path d="M108.974 105.252C119.304 182.854 194.469 264.724 276.856 288.107" stroke="black" stroke-width="0.5" stroke-miterlimit="10"/>
<path d="M310.839 91.6392C234.611 113.593 124.884 182.082 66.2456 244.314" stroke="black" stroke-width="0.5" stroke-miterlimit="10"/>
<path d="M310.838 91.6392C273.072 155.494 194.643 258.062 136.005 320.295" stroke="black" stroke-width="0.5" stroke-miterlimit="10"/>
<path d="M310.838 91.6396C322.79 181.387 284.811 305.041 226.173 367.273C321.593 394.364 389.248 343.427 377.277 253.544C435.915 191.312 406.104 118.691 310.838 91.6396V91.6396Z" stroke="black" stroke-width="0.5" stroke-miterlimit="10"/>
<path d="M307.228 189.169C355.362 202.82 389.48 177.139 383.436 131.802" stroke="black" stroke-width="0.5" stroke-miterlimit="10"/>
<path d="M276.837 288.107C359.224 311.49 417.611 267.524 407.282 189.922" stroke="black" stroke-width="0.5" stroke-miterlimit="10"/>
<path d="M310.838 91.6396C369.245 182.777 369.052 307.57 310.414 369.803" stroke="black" stroke-width="0.5" stroke-miterlimit="10"/>
<path d="M310.838 91.6396C399.134 160.283 423.268 266.771 364.63 329.003" stroke="black" stroke-width="0.5" stroke-miterlimit="10"/>
<path d="M310.839 91.6393C406.104 118.672 435.915 191.312 377.277 253.544C365.306 163.642 278.247 68.8163 182.808 41.726C241.446 -20.5064 298.887 1.89182 310.839 91.6393Z" stroke="black" stroke-width="0.5" stroke-miterlimit="10"/>
<path d="M383.436 131.802C377.393 86.4647 333.487 38.6367 285.371 24.9854" stroke="black" stroke-width="0.5" stroke-miterlimit="10"/>
<path d="M407.282 189.921C396.952 112.3 321.786 30.4494 239.418 7.06641" stroke="black" stroke-width="0.5" stroke-miterlimit="10"/>
<path d="M310.839 91.6395C387.066 69.6853 401.374 102.452 342.755 164.685" stroke="black" stroke-width="0.5" stroke-miterlimit="10"/>
<path d="M310.838 91.6394C348.605 27.785 331.614 26.472 272.976 88.7045" stroke="black" stroke-width="0.5" stroke-miterlimit="10"/>
<path d="M310.839 91.6393C298.887 1.89182 241.446 -20.5064 182.827 41.726C87.3878 14.6357 19.7328 65.5531 31.7037 155.455C90.3419 93.2227 215.554 64.5876 310.839 91.6393V91.6393Z" stroke="black" stroke-width="0.5" stroke-miterlimit="10"/>
<path d="M285.371 24.9855C237.237 11.3342 203.119 37.0149 209.163 82.3521" stroke="black" stroke-width="0.5" stroke-miterlimit="10"/>
<path d="M239.418 7.0668C157.031 -16.3162 98.625 27.65 108.974 105.252" stroke="black" stroke-width="0.5" stroke-miterlimit="10"/>
<path d="M310.839 91.6395C252.432 0.501713 157.205 -23.0358 98.5671 39.1966" stroke="black" stroke-width="0.5" stroke-miterlimit="10"/>
<path d="M310.838 91.6394C222.543 22.9964 103.008 17.7637 44.3696 79.9962" stroke="black" stroke-width="0.5" stroke-miterlimit="10"/>
<path d="M31.7037 155.455C-26.9345 217.687 2.87691 290.308 98.1423 317.36C110.094 407.107 167.535 429.506 226.173 367.273C130.753 340.183 43.6746 245.357 31.7037 155.455Z" stroke="black" stroke-width="0.5" stroke-miterlimit="10"/>
<path d="M1.69922 219.078C12.029 296.68 87.1948 378.549 169.582 401.932" stroke="black" stroke-width="0.5" stroke-miterlimit="10"/>
<path d="M66.2457 244.314C7.60746 306.547 21.9146 339.314 98.1617 317.36" stroke="black" stroke-width="0.5" stroke-miterlimit="10"/>
<path d="M136.005 320.295C77.3668 382.527 60.3758 381.195 98.1421 317.36" stroke="black" stroke-width="0.5" stroke-miterlimit="10"/>
<path d="M226.173 367.274C167.535 429.506 110.094 407.108 98.1423 317.36C193.408 344.393 318.639 315.777 377.277 253.544C389.248 343.446 321.593 394.364 226.173 367.274V367.274Z" stroke="black" stroke-width="0.5" stroke-miterlimit="10"/>
<path d="M169.582 401.933C251.969 425.316 310.356 381.35 300.026 303.748" stroke="black" stroke-width="0.5" stroke-miterlimit="10"/>
<path d="M310.414 369.803C251.776 432.036 156.549 408.498 98.1423 317.36" stroke="black" stroke-width="0.5" stroke-miterlimit="10"/>
<path d="M364.63 329.004C305.992 391.236 186.457 386.003 98.1423 317.36" stroke="black" stroke-width="0.5" stroke-miterlimit="10"/>
<path d="M377.277 253.544C318.639 315.777 193.427 344.412 98.1422 317.36C86.1906 227.612 124.169 103.958 182.808 41.7261C278.227 68.8164 365.306 163.642 377.277 253.544Z" stroke="black" stroke-width="0.5" stroke-miterlimit="10"/>
<path d="M300.026 303.747C289.696 226.145 214.531 144.276 132.144 120.893" stroke="black" stroke-width="0.5" stroke-miterlimit="10"/>
<path d="M342.755 164.685C284.116 226.917 174.389 295.405 98.1616 317.36" stroke="black" stroke-width="0.5" stroke-miterlimit="10"/>
<path d="M272.976 88.7046C214.337 150.937 135.909 253.506 98.1423 317.36" stroke="black" stroke-width="0.5" stroke-miterlimit="10"/>
<path d="M182.827 41.726C124.189 103.958 86.2099 227.612 98.1615 317.36C2.87684 290.308 -26.9346 217.687 31.7036 155.455C19.7327 65.5531 87.3877 14.6356 182.827 41.726Z" stroke="black" stroke-width="0.5" stroke-miterlimit="10"/>
<path d="M132.144 120.892C49.7759 97.509 -8.63061 141.475 1.69914 219.077" stroke="black" stroke-width="0.5" stroke-miterlimit="10"/>
<path d="M98.5671 39.1963C39.9289 101.429 39.7358 226.202 98.1423 317.36" stroke="black" stroke-width="0.5" stroke-miterlimit="10"/>
<path d="M44.3697 79.9961C-14.2685 142.229 9.84709 248.717 98.1423 317.36" stroke="black" stroke-width="0.5" stroke-miterlimit="10"/>
<path d="M353.065 344.392C349.281 348.544 343.913 353.834 339.607 357.426C332.637 363.238 323.234 370.961 315.511 375.731C307.479 380.674 296.473 386.795 287.901 390.753C280.621 394.113 270.601 397.936 262.877 400.04C256.12 401.875 247.084 404.385 240.152 405.408C235.788 406.065 229.977 407.05 225.575 407.436C219.647 407.976 211.711 408.498 205.745 408.498C190.685 408.536 180.375 407.069 174.833 406.296C170.856 405.737 165.585 404.752 161.665 403.902C157.321 402.956 151.529 401.624 147.3 400.253C143.709 399.094 138.882 397.627 135.31 396.352C131.68 395.039 126.853 393.224 123.339 391.622C120.192 390.174 115.925 388.378 112.874 386.737C109.901 385.153 105.904 383.087 102.969 381.407C100.092 379.766 96.3272 377.488 93.5662 375.673C88.0828 372.081 79.568 366.347 68.7555 356.731C64.1795 352.657 58.4837 346.825 54.2359 342.423C52.0735 340.183 49.4283 336.958 47.4009 334.583C45.2964 332.131 42.6898 328.714 40.759 326.145C38.8475 323.577 36.4533 320.025 34.5998 317.399C32.7269 314.734 30.5258 310.949 28.8074 308.188C26.8766 305.06 24.579 300.735 22.8992 297.472C21.2966 294.363 19.2886 290.154 17.8791 286.968C16.18 283.067 14.0175 277.796 12.5887 273.78C10.9476 269.146 8.97814 262.87 7.64589 258.14C5.42548 250.223 3.59123 239.372 2.22036 231.262C-1.04268 206.701 8.26375 180.248 31.6457 155.455C90.2839 93.2229 215.496 64.5879 310.78 91.6395C215.515 64.6072 90.2839 93.2229 31.6457 155.455C8.34098 180.267 -0.984754 206.72 2.2976 231.262C0.424726 216.568 0.482649 208.419 0.540573 199.788C0.598497 192.123 1.50597 181.889 2.68375 174.301C4.09323 165.226 6.75773 153.215 9.44153 144.43C12.0095 135.992 16.1028 124.87 20.0995 117.011C24.3473 108.651 30.352 97.6253 35.6617 89.8631C41.1452 81.8307 49.2738 71.6549 55.9543 64.6072C67.2688 52.655 76.0732 45.8776 81.8849 41.3786C89.0095 35.8949 99.2427 29.5809 107.082 25.1592C114.148 21.1816 124.034 16.6826 131.641 13.8442C140.195 10.6582 151.857 7.10542 160.777 5.13592C167.496 3.64914 176.571 2.02719 183.425 1.50586C187.77 1.1776 193.562 0.617648 197.906 0.540413C203.718 0.42456 211.499 0.328016 217.291 0.868663C221.423 1.23553 226.965 1.66033 231.077 2.22028C235.982 2.89609 242.469 4.03531 247.315 5.03937C257.722 7.20196 269.809 11.083 273.671 12.5891C277.262 13.9794 282.128 15.6979 285.642 17.3198C291.839 20.1775 300.045 24.1744 306.011 27.5149C308.888 29.1368 312.692 31.3959 315.414 33.2496C318.04 35.0453 321.574 37.3817 324.161 39.2353C326.69 41.0697 329.992 43.5991 332.405 45.5493C360.556 68.2372 377.123 93.8987 386.062 111.45C387.896 115.061 390.213 119.966 391.835 123.692C393.303 127.091 395.04 131.705 396.373 135.162C398.149 139.757 400.041 146.052 401.315 150.802C403.439 158.757 405.447 169.551 406.741 177.68C407.533 182.681 407.938 189.42 408.286 194.478C408.942 203.94 408.479 221.221 406.355 234.641C403.401 253.313 400.234 263.643 395.137 277.468C393.515 281.89 391.14 287.74 388.939 291.93C384.595 300.252 378.378 311.123 373.377 319.078C368.202 327.304 359.63 337.152 353.084 344.334L353.065 344.392Z" stroke="black" stroke-width="0.5" stroke-miterlimit="10"/>
<path d="M406.702 177.719C407.745 186.388 408.652 198.051 408.498 206.778C408.286 218.866 407.571 226.917 405.64 238.985C404.385 246.767 401.972 257.039 399.578 264.55C396.701 273.49 392.395 285.327 388.089 293.687C383.977 301.681 378.146 312.205 373.029 319.6C367.604 327.459 359.687 337.499 353.065 344.373C346.326 351.363 336.788 360.206 329.084 366.115C317.268 375.151 310.549 378.936 300.393 384.632C292.728 388.938 281.857 393.476 273.593 396.507C266.16 399.249 256.004 402.3 248.223 403.806C239.553 405.486 227.911 407.513 219.106 407.996C212.484 408.363 203.621 408.479 196.979 408.343C192.809 408.266 187.248 407.726 183.078 407.339C177.517 406.818 170.18 405.544 164.697 404.52C160.777 403.787 155.641 402.493 151.78 401.508C147.223 400.33 141.237 398.399 136.797 396.874C133.321 395.677 128.765 393.881 125.366 392.472C116.774 388.919 107.12 383.879 103.008 381.408C100.227 379.747 96.4624 377.623 93.7786 375.789C91.1527 373.993 87.6 371.657 85.0321 369.803C82.4641 367.949 79.1045 365.381 76.6331 363.392C69.4892 357.638 64.4884 352.85 61.3412 349.76C55.9736 344.45 55.4909 343.91 47.4781 334.661C42.2457 328.598 33.1903 315.912 28.846 308.188C25.4671 302.183 21.258 294.016 18.3039 287.798C16.6048 284.226 14.616 279.341 13.3224 275.614C11.8936 271.463 9.96282 265.941 8.72712 261.731C7.58795 257.87 6.37155 252.656 5.40615 248.756C4.11252 243.581 3.05058 236.533 2.29757 231.262C7.2404 268.335 40.8555 301.083 98.1615 317.341C40.8555 301.102 7.2211 268.335 2.29757 231.262C1.44802 222.573 0.347471 210.93 0.501935 202.202C0.714322 190.153 1.42872 182.082 3.35951 169.995C4.61453 162.214 7.02802 151.941 9.4222 144.43C12.2991 135.49 16.6048 123.654 20.9104 115.293C25.023 107.299 30.854 96.7758 35.9706 89.3806C41.3961 81.5219 49.3124 71.4813 55.935 64.6073C62.6735 57.6175 72.2116 48.7741 79.9155 42.8656C91.7319 33.829 98.4511 30.0445 108.607 24.3484C116.272 20.0425 127.143 15.5049 135.406 12.4734C142.84 9.73157 152.996 6.68077 160.777 5.17468C169.446 3.49481 181.089 1.46738 189.893 0.984663C196.516 0.617795 205.378 0.501942 212.02 0.637104C216.191 0.71434 221.752 1.25499 225.922 1.64116C231.483 2.1625 238.82 3.43689 244.303 4.46026C248.223 5.19399 253.359 6.48768 257.22 7.47244C261.777 8.65027 267.762 10.5812 272.203 12.1066C275.679 13.3037 280.235 15.0994 283.633 16.509C292.226 20.0618 301.879 25.1014 305.992 27.5729C308.772 29.2335 312.537 31.3575 315.221 33.1918C317.847 34.9875 321.4 37.3239 323.968 39.1776C326.536 41.0312 329.895 43.5993 332.367 45.5881C339.511 51.3421 344.511 56.1307 347.659 59.2201C353.026 64.5301 353.509 65.0707 361.522 74.3197C366.773 80.3826 375.81 93.0879 380.154 100.792C383.533 106.797 387.742 114.965 390.696 121.182C392.395 124.754 394.384 129.64 395.677 133.366C397.106 137.518 399.037 143.04 400.273 147.249C401.412 151.111 402.628 156.324 403.594 160.225C404.887 165.4 406.065 172.428 406.702 177.719V177.719Z" stroke="black" stroke-width="0.5" stroke-miterlimit="10"/>
<path d="M310.838 91.6393C215.573 64.607 90.3418 93.2227 31.7036 155.455C43.6745 245.357 130.734 340.183 226.173 367.273C284.811 305.041 322.79 181.387 310.838 91.6393V91.6393Z" stroke="black" stroke-width="0.5" stroke-miterlimit="10"/>
<path d="M108.974 105.252C119.304 182.854 194.469 264.724 276.856 288.107" stroke="black" stroke-width="0.5" stroke-miterlimit="10"/>
<path d="M310.839 91.6392C234.611 113.593 124.884 182.082 66.2456 244.314" stroke="black" stroke-width="0.5" stroke-miterlimit="10"/>
<path d="M310.838 91.6392C273.072 155.494 194.643 258.062 136.005 320.295" stroke="black" stroke-width="0.5" stroke-miterlimit="10"/>
<path d="M310.838 91.6396C322.79 181.387 284.811 305.041 226.173 367.273C321.593 394.364 389.248 343.427 377.277 253.544C435.915 191.312 406.104 118.691 310.838 91.6396V91.6396Z" stroke="black" stroke-width="0.5" stroke-miterlimit="10"/>
<path d="M276.837 288.107C359.224 311.49 417.611 267.524 407.282 189.922" stroke="black" stroke-width="0.5" stroke-miterlimit="10"/>
<path d="M310.838 91.6396C369.245 182.777 369.052 307.57 310.414 369.803" stroke="black" stroke-width="0.5" stroke-miterlimit="10"/>
<path d="M310.838 91.6396C399.134 160.283 423.268 266.771 364.63 329.003" stroke="black" stroke-width="0.5" stroke-miterlimit="10"/>
<path d="M310.839 91.6393C406.104 118.672 435.915 191.312 377.277 253.544C365.306 163.642 278.247 68.8163 182.808 41.726C241.446 -20.5064 298.887 1.89182 310.839 91.6393Z" stroke="black" stroke-width="0.5" stroke-miterlimit="10"/>
<path d="M407.282 189.921C396.952 112.3 321.786 30.4494 239.418 7.06641" stroke="black" stroke-width="0.5" stroke-miterlimit="10"/>
<path d="M310.839 91.6395C387.066 69.6853 401.374 102.452 342.755 164.685" stroke="black" stroke-width="0.5" stroke-miterlimit="10"/>
<path d="M310.838 91.6394C348.605 27.785 331.614 26.472 272.976 88.7045" stroke="black" stroke-width="0.5" stroke-miterlimit="10"/>
<path d="M310.839 91.6393C298.887 1.89182 241.446 -20.5064 182.827 41.726C87.3878 14.6357 19.7328 65.5531 31.7037 155.455C90.3419 93.2227 215.554 64.5876 310.839 91.6393V91.6393Z" stroke="black" stroke-width="0.5" stroke-miterlimit="10"/>
<path d="M239.418 7.0668C157.031 -16.3162 98.625 27.65 108.974 105.252" stroke="black" stroke-width="0.5" stroke-miterlimit="10"/>
<path d="M310.839 91.6395C252.432 0.501713 157.205 -23.0358 98.5671 39.1966" stroke="black" stroke-width="0.5" stroke-miterlimit="10"/>
<path d="M310.838 91.6394C222.543 22.9964 103.008 17.7637 44.3696 79.9962" stroke="black" stroke-width="0.5" stroke-miterlimit="10"/>
<path d="M31.7037 155.455C-26.9345 217.687 2.87691 290.308 98.1423 317.36C110.094 407.107 167.535 429.506 226.173 367.273C130.753 340.183 43.6746 245.357 31.7037 155.455Z" stroke="black" stroke-width="0.5" stroke-miterlimit="10"/>
<path d="M1.69922 219.078C12.029 296.68 87.1948 378.549 169.582 401.932" stroke="black" stroke-width="0.5" stroke-miterlimit="10"/>
<path d="M25.5444 277.197C31.5878 322.534 75.4941 370.362 123.609 384.014" stroke="black" stroke-width="0.5" stroke-miterlimit="10"/>
<path d="M66.2457 244.314C7.60746 306.547 21.9146 339.314 98.1617 317.36" stroke="black" stroke-width="0.5" stroke-miterlimit="10"/>
<path d="M136.005 320.295C77.3668 382.527 60.3758 381.195 98.1421 317.36" stroke="black" stroke-width="0.5" stroke-miterlimit="10"/>
<path d="M226.173 367.274C167.535 429.506 110.094 407.108 98.1423 317.36C193.408 344.393 318.639 315.777 377.277 253.544C389.248 343.446 321.593 394.364 226.173 367.274V367.274Z" stroke="black" stroke-width="0.5" stroke-miterlimit="10"/>
<path d="M169.582 401.933C251.969 425.316 310.356 381.35 300.026 303.748" stroke="black" stroke-width="0.5" stroke-miterlimit="10"/>
<path d="M123.629 384.015C171.764 397.666 205.881 371.985 199.837 326.648" stroke="black" stroke-width="0.5" stroke-miterlimit="10"/>
<path d="M310.414 369.803C251.776 432.036 156.549 408.498 98.1423 317.36" stroke="black" stroke-width="0.5" stroke-miterlimit="10"/>
<path d="M364.63 329.004C305.992 391.236 186.457 386.003 98.1423 317.36" stroke="black" stroke-width="0.5" stroke-miterlimit="10"/>
<path d="M377.277 253.544C318.639 315.777 193.427 344.412 98.1422 317.36C86.1906 227.612 124.169 103.958 182.808 41.7261C278.227 68.8164 365.306 163.642 377.277 253.544Z" stroke="black" stroke-width="0.5" stroke-miterlimit="10"/>
<path d="M300.026 303.747C289.696 226.145 214.531 144.276 132.144 120.893" stroke="black" stroke-width="0.5" stroke-miterlimit="10"/>
<path d="M199.837 326.648C193.794 281.31 149.888 233.482 101.772 219.831" stroke="black" stroke-width="0.5" stroke-miterlimit="10"/>
<path d="M342.755 164.685C284.116 226.917 174.389 295.405 98.1616 317.36" stroke="black" stroke-width="0.5" stroke-miterlimit="10"/>
<path d="M272.976 88.7046C214.337 150.937 135.909 253.506 98.1423 317.36" stroke="black" stroke-width="0.5" stroke-miterlimit="10"/>
<path d="M182.827 41.726C124.189 103.958 86.2099 227.612 98.1615 317.36C2.87684 290.308 -26.9346 217.687 31.7036 155.455C19.7327 65.5531 87.3877 14.6356 182.827 41.726Z" stroke="black" stroke-width="0.5" stroke-miterlimit="10"/>
<path d="M132.144 120.892C49.7759 97.509 -8.63061 141.475 1.69914 219.077" stroke="black" stroke-width="0.5" stroke-miterlimit="10"/>
<path d="M101.753 219.831C53.6182 206.179 19.5011 231.86 25.5445 277.197" stroke="black" stroke-width="0.5" stroke-miterlimit="10"/>
<path d="M98.5671 39.1963C39.9289 101.429 39.7358 226.202 98.1423 317.36" stroke="black" stroke-width="0.5" stroke-miterlimit="10"/>
<path d="M44.3697 79.9961C-14.2685 142.229 9.84709 248.717 98.1423 317.36" stroke="black" stroke-width="0.5" stroke-miterlimit="10"/>
<path d="M300.624 304.365C290.217 226.261 214.588 143.889 131.699 120.352" stroke="black" stroke-width="0.5" stroke-miterlimit="10"/>
<path d="M97.4856 318.074C135.484 253.814 214.414 150.589 273.419 87.9707" stroke="black" stroke-width="0.5" stroke-miterlimit="10"/>
<path d="M108.375 104.615C118.782 182.72 194.411 265.091 277.3 288.629" stroke="black" stroke-width="0.5" stroke-miterlimit="10"/>
<path d="M135.58 321.029C194.585 258.41 273.516 155.185 311.514 90.9253" stroke="black" stroke-width="0.5" stroke-miterlimit="10"/>
<path d="M273.419 87.9709C332.424 25.3523 349.512 26.6846 311.514 90.9252" stroke="black" stroke-width="0.5" stroke-miterlimit="10"/>
<path d="M300.624 304.365C290.217 226.261 214.588 143.889 131.699 120.352" stroke="black" stroke-width="0.5" stroke-miterlimit="10"/>
<path d="M97.4856 318.074C135.484 253.814 214.414 150.589 273.419 87.9707" stroke="black" stroke-width="0.5" stroke-miterlimit="10"/>
<path d="M135.58 321.029C194.585 258.41 273.516 155.185 311.514 90.9253" stroke="black" stroke-width="0.5" stroke-miterlimit="10"/>
<path d="M273.419 87.9709C332.424 25.3523 349.512 26.6846 311.514 90.9252" stroke="black" stroke-width="0.5" stroke-miterlimit="10"/>
</svg>
